<svg xmlns="http://www.w3.org/2000/svg" xmlns:xlink="http://www.w3.org/1999/xlink" width="110.829" height="110" viewBox="0 0 110.829 110"><defs><style>.a,.b{fill:url(#a);}.b{stroke:#fff;stroke-width:5px;}.c{stroke:none;}.d{fill:none;}</style><linearGradient id="a" x1="0.5" x2="0.5" y2="1" gradientUnits="objectBoundingBox"><stop offset="0" stop-color="#00bffb"/><stop offset="1" stop-color="#007efb"/></linearGradient></defs><g transform="translate(-130 -9)"><circle class="a" cx="13.5" cy="13.5" r="13.5" transform="matrix(1, 0.017, -0.017, 1, 139.326, 13.68)"/><path class="a" d="M21-.543l8.015-.173c1.631,0,15.574-1.641,16.832,3.61-3.745.582-7.861,5.191-10.84,8.284a37.785,37.785,0,0,0-2.732,6.081C28.617,29.682,30.3,48.965,30.706,58.745H21c-11.6,0-21-8.767-21-19.582V19.582C0,8.767,9.4-.543,21-.543Z" transform="translate(130 46.105)"/><circle class="a" cx="18.5" cy="18.5" r="18.5" transform="translate(169 9)"/><path class="a" d="M21.587-.017H14.638C13.22-.017,1.093-.954,0,3.424c3.253.485,5.99,3.491,8.577,6.07.69,1.338,2.2,2.965,2.787,4.871,3.177,10.358,2.147,26.442,1.791,34.6h8.432c10.075,0,18.242-7.309,18.242-16.326V16.309C39.829,7.293,31.662-.017,21.587-.017Z" transform="translate(201 50.105)"/><g class="b" transform="translate(163 51)"><rect class="c" width="50" height="63" rx="21"/><rect class="d" x="-2.5" y="-2.5" width="55" height="68" rx="23.5"/></g><circle class="a" cx="13.5" cy="13.5" r="13.5" transform="matrix(1, 0.017, -0.017, 1, 207.326, 18.68)"/></g></svg>